# Central rib hub for connectivity
# Icosphere geometry

v -53.5023 490.7258 5.2500
v 48.7523 490.7258 5.2500
v -53.5023 325.2742 5.2500
v 48.7523 325.2742 5.2500
v -2.3750 356.8727 87.9758
v -2.3750 459.1273 87.9758
v -2.3750 356.8727 -77.4758
v -2.3750 459.1273 -77.4758
v 80.3508 408.0000 -45.8773
v 80.3508 408.0000 56.3773
v -85.1008 408.0000 -45.8773
v -85.1008 408.0000 56.3773
v -81.0519 456.6250 35.3019
v -51.0000 438.0519 83.9269
v -32.4269 486.6769 53.8750
v 27.6769 486.6769 53.8750
v -2.3750 505.2500 5.2500
v 27.6769 486.6769 -43.3750
v -32.4269 486.6769 -43.3750
v -51.0000 438.0519 -73.4269
v -81.0519 456.6250 -24.8019
v -99.6250 408.0000 5.2500
v 46.2500 438.0519 83.9269
v 76.3019 456.6250 35.3019
v -51.0000 377.9481 83.9269
v -2.3750 408.0000 102.5000
v -81.0519 359.3750 -24.8019
v -81.0519 359.3750 35.3019
v -2.3750 408.0000 -92.0000
v -51.0000 377.9481 -73.4269
v 76.3019 456.6250 -24.8019
v 46.2500 438.0519 -73.4269
v 76.3019 359.3750 35.3019
v 46.2500 377.9481 83.9269
v 27.6769 329.3231 53.8750
v -32.4269 329.3231 53.8750
v -2.3750 310.7500 5.2500
v -32.4269 329.3231 -43.3750
v 27.6769 329.3231 -43.3750
v 46.2500 377.9481 -73.4269
v 76.3019 359.3750 -24.8019
v 94.8750 408.0000 5.2500
v -69.8452 476.2740 20.8705
v -59.5371 474.9266 46.6129
v -44.5707 491.8945 30.5245
v -70.6490 423.6205 72.7202
v -69.3016 449.3629 62.4121
v -86.2695 433.2745 47.4457
v -17.9955 475.4702 73.5240
v -43.7379 465.1621 72.1766
v -27.6495 450.1957 89.1445
v -18.1742 500.4902 30.8137
v -28.9502 501.5485 5.2500
v 13.2455 475.4702 73.5240
v -2.3750 490.7258 56.3774
v 24.2002 501.5485 5.2500
v 13.4242 500.4902 30.8137
v 39.8207 491.8945 30.5245
v -18.1742 500.4902 -20.3137
v -44.5707 491.8945 -20.0245
v 39.8207 491.8945 -20.0245
v 13.4242 500.4902 -20.3137
v -17.9955 475.4702 -63.0240
v -2.3750 490.7258 -45.8774
v 13.2455 475.4702 -63.0240
v -59.5371 474.9266 -36.1129
v -69.8452 476.2740 -10.3705
v -27.6495 450.1957 -78.6445
v -43.7379 465.1621 -61.6766
v -86.2695 433.2745 -36.9457
v -69.3016 449.3629 -51.9121
v -70.6490 423.6205 -62.2202
v -85.1008 459.1274 5.2500
v -95.9235 408.0000 -21.3252
v -94.8652 433.5637 -10.5492
v -94.8652 433.5637 21.0492
v -95.9235 408.0000 31.8252
v 54.7871 474.9266 46.6129
v 65.0952 476.2740 20.8705
v 22.8995 450.1957 89.1445
v 38.9879 465.1621 72.1766
v 81.5195 433.2745 47.4457
v 64.5516 449.3629 62.4121
v 65.8990 423.6205 72.7202
v -27.9387 423.7992 97.7402
v -2.3750 434.5752 98.7985
v -70.6490 392.3795 72.7202
v -53.5024 408.0000 87.9758
v -2.3750 381.4248 98.7985
v -27.9387 392.2008 97.7402
v -27.6495 365.8043 89.1445
v -94.8652 382.4363 21.0492
v -86.2695 382.7255 47.4457
v -86.2695 382.7255 -36.9457
v -94.8652 382.4363 -10.5492
v -69.8452 339.7260 20.8705
v -85.1008 356.8726 5.2500
v -69.8452 339.7260 -10.3705
v -53.5024 408.0000 -77.4758
v -70.6490 392.3795 -62.2202
v -2.3750 434.5752 -88.2985
v -27.9387 423.7992 -87.2402
v -27.6495 365.8043 -78.6445
v -27.9387 392.2008 -87.2402
v -2.3750 381.4248 -88.2985
v 38.9879 465.1621 -61.6766
v 22.8995 450.1957 -78.6445
v 65.0952 476.2740 -10.3705
v 54.7871 474.9266 -36.1129
v 65.8990 423.6205 -62.2202
v 64.5516 449.3629 -51.9121
v 81.5195 433.2745 -36.9457
v 65.0952 339.7260 20.8705
v 54.7871 341.0734 46.6129
v 39.8207 324.1055 30.5245
v 65.8990 392.3795 72.7202
v 64.5516 366.6371 62.4121
v 81.5195 382.7255 47.4457
v 13.2455 340.5298 73.5240
v 38.9879 350.8379 72.1766
v 22.8995 365.8043 89.1445
v 13.4242 315.5098 30.8137
v 24.2002 314.4515 5.2500
v -17.9955 340.5298 73.5240
v -2.3750 325.2742 56.3774
v -28.9502 314.4515 5.2500
v -18.1742 315.5098 30.8137
v -44.5707 324.1055 30.5245
v 13.4242 315.5098 -20.3137
v 39.8207 324.1055 -20.0245
v -44.5707 324.1055 -20.0245
v -18.1742 315.5098 -20.3137
v 13.2455 340.5298 -63.0240
v -2.3750 325.2742 -45.8774
v -17.9955 340.5298 -63.0240
v 54.7871 341.0734 -36.1129
v 65.0952 339.7260 -10.3705
v 22.8995 365.8043 -78.6445
v 38.9879 350.8379 -61.6766
v 81.5195 382.7255 -36.9457
v 64.5516 366.6371 -51.9121
v 65.8990 392.3795 -62.2202
v 80.3508 356.8726 5.2500
v 91.1735 408.0000 -21.3252
v 90.1152 382.4363 -10.5492
v 90.1152 382.4363 21.0492
v 91.1735 408.0000 31.8252
v 23.1887 392.2008 97.7402
v 48.7524 408.0000 87.9758
v 23.1887 423.7992 97.7402
v -59.5371 341.0734 46.6129
v -43.7379 350.8379 72.1766
v -69.3016 366.6371 62.4121
v -43.7379 350.8379 -61.6766
v -59.5371 341.0734 -36.1129
v -69.3016 366.6371 -51.9121
v 48.7524 408.0000 -77.4758
v 23.1887 392.2008 -87.2402
v 23.1887 423.7992 -87.2402
v 90.1152 433.5637 21.0492
v 90.1152 433.5637 -10.5492
v 80.3508 459.1274 5.2500

f 1 43 45
f 13 44 43
f 15 45 44
f 43 44 45
f 12 46 48
f 14 47 46
f 13 48 47
f 46 47 48
f 6 49 51
f 15 50 49
f 14 51 50
f 49 50 51
f 13 47 44
f 14 50 47
f 15 44 50
f 47 50 44
f 1 45 53
f 15 52 45
f 17 53 52
f 45 52 53
f 6 54 49
f 16 55 54
f 15 49 55
f 54 55 49
f 2 56 58
f 17 57 56
f 16 58 57
f 56 57 58
f 15 55 52
f 16 57 55
f 17 52 57
f 55 57 52
f 1 53 60
f 17 59 53
f 19 60 59
f 53 59 60
f 2 61 56
f 18 62 61
f 17 56 62
f 61 62 56
f 8 63 65
f 19 64 63
f 18 65 64
f 63 64 65
f 17 62 59
f 18 64 62
f 19 59 64
f 62 64 59
f 1 60 67
f 19 66 60
f 21 67 66
f 60 66 67
f 8 68 63
f 20 69 68
f 19 63 69
f 68 69 63
f 11 70 72
f 21 71 70
f 20 72 71
f 70 71 72
f 19 69 66
f 20 71 69
f 21 66 71
f 69 71 66
f 1 67 43
f 21 73 67
f 13 43 73
f 67 73 43
f 11 74 70
f 22 75 74
f 21 70 75
f 74 75 70
f 12 48 77
f 13 76 48
f 22 77 76
f 48 76 77
f 21 75 73
f 22 76 75
f 13 73 76
f 75 76 73
f 2 58 79
f 16 78 58
f 24 79 78
f 58 78 79
f 6 80 54
f 23 81 80
f 16 54 81
f 80 81 54
f 10 82 84
f 24 83 82
f 23 84 83
f 82 83 84
f 16 81 78
f 23 83 81
f 24 78 83
f 81 83 78
f 6 51 86
f 14 85 51
f 26 86 85
f 51 85 86
f 12 87 46
f 25 88 87
f 14 46 88
f 87 88 46
f 5 89 91
f 26 90 89
f 25 91 90
f 89 90 91
f 14 88 85
f 25 90 88
f 26 85 90
f 88 90 85
f 12 77 93
f 22 92 77
f 28 93 92
f 77 92 93
f 11 94 74
f 27 95 94
f 22 74 95
f 94 95 74
f 3 96 98
f 28 97 96
f 27 98 97
f 96 97 98
f 22 95 92
f 27 97 95
f 28 92 97
f 95 97 92
f 11 72 100
f 20 99 72
f 30 100 99
f 72 99 100
f 8 101 68
f 29 102 101
f 20 68 102
f 101 102 68
f 7 103 105
f 30 104 103
f 29 105 104
f 103 104 105
f 20 102 99
f 29 104 102
f 30 99 104
f 102 104 99
f 8 65 107
f 18 106 65
f 32 107 106
f 65 106 107
f 2 108 61
f 31 109 108
f 18 61 109
f 108 109 61
f 9 110 112
f 32 111 110
f 31 112 111
f 110 111 112
f 18 109 106
f 31 111 109
f 32 106 111
f 109 111 106
f 4 113 115
f 33 114 113
f 35 115 114
f 113 114 115
f 10 116 118
f 34 117 116
f 33 118 117
f 116 117 118
f 5 119 121
f 35 120 119
f 34 121 120
f 119 120 121
f 33 117 114
f 34 120 117
f 35 114 120
f 117 120 114
f 4 115 123
f 35 122 115
f 37 123 122
f 115 122 123
f 5 124 119
f 36 125 124
f 35 119 125
f 124 125 119
f 3 126 128
f 37 127 126
f 36 128 127
f 126 127 128
f 35 125 122
f 36 127 125
f 37 122 127
f 125 127 122
f 4 123 130
f 37 129 123
f 39 130 129
f 123 129 130
f 3 131 126
f 38 132 131
f 37 126 132
f 131 132 126
f 7 133 135
f 39 134 133
f 38 135 134
f 133 134 135
f 37 132 129
f 38 134 132
f 39 129 134
f 132 134 129
f 4 130 137
f 39 136 130
f 41 137 136
f 130 136 137
f 7 138 133
f 40 139 138
f 39 133 139
f 138 139 133
f 9 140 142
f 41 141 140
f 40 142 141
f 140 141 142
f 39 139 136
f 40 141 139
f 41 136 141
f 139 141 136
f 4 137 113
f 41 143 137
f 33 113 143
f 137 143 113
f 9 144 140
f 42 145 144
f 41 140 145
f 144 145 140
f 10 118 147
f 33 146 118
f 42 147 146
f 118 146 147
f 41 145 143
f 42 146 145
f 33 143 146
f 145 146 143
f 5 121 89
f 34 148 121
f 26 89 148
f 121 148 89
f 10 84 116
f 23 149 84
f 34 116 149
f 84 149 116
f 6 86 80
f 26 150 86
f 23 80 150
f 86 150 80
f 34 149 148
f 23 150 149
f 26 148 150
f 149 150 148
f 3 128 96
f 36 151 128
f 28 96 151
f 128 151 96
f 5 91 124
f 25 152 91
f 36 124 152
f 91 152 124
f 12 93 87
f 28 153 93
f 25 87 153
f 93 153 87
f 36 152 151
f 25 153 152
f 28 151 153
f 152 153 151
f 7 135 103
f 38 154 135
f 30 103 154
f 135 154 103
f 3 98 131
f 27 155 98
f 38 131 155
f 98 155 131
f 11 100 94
f 30 156 100
f 27 94 156
f 100 156 94
f 38 155 154
f 27 156 155
f 30 154 156
f 155 156 154
f 9 142 110
f 40 157 142
f 32 110 157
f 142 157 110
f 7 105 138
f 29 158 105
f 40 138 158
f 105 158 138
f 8 107 101
f 32 159 107
f 29 101 159
f 107 159 101
f 40 158 157
f 29 159 158
f 32 157 159
f 158 159 157
f 10 147 82
f 42 160 147
f 24 82 160
f 147 160 82
f 9 112 144
f 31 161 112
f 42 144 161
f 112 161 144
f 2 79 108
f 24 162 79
f 31 108 162
f 79 162 108
f 42 161 160
f 31 162 161
f 24 160 162
f 161 162 160
