# Intervertebral disc
# Procedurally generated cylindrical geometry

v 46.6822 482.0166 -59.0000
v 45.9136 482.0166 -51.1964
v 43.6374 482.0166 -43.6927
v 39.9410 482.0166 -36.7772
v 34.9665 482.0166 -30.7157
v 28.9050 482.0166 -25.7412
v 21.9896 482.0166 -22.0448
v 14.4858 482.0166 -19.7686
v 6.6822 482.0166 -19.0000
v -1.1214 482.0166 -19.7686
v -8.6251 482.0166 -22.0448
v -15.5406 482.0166 -25.7412
v -21.6020 482.0166 -30.7157
v -26.5766 482.0166 -36.7772
v -30.2729 482.0166 -43.6927
v -32.5492 482.0166 -51.1964
v -33.3178 482.0166 -59.0000
v -32.5492 482.0166 -66.8036
v -30.2729 482.0166 -74.3073
v -26.5766 482.0166 -81.2228
v -21.6020 482.0166 -87.2843
v -15.5406 482.0166 -92.2588
v -8.6251 482.0166 -95.9552
v -1.1214 482.0166 -98.2314
v 6.6822 482.0166 -99.0000
v 14.4858 482.0166 -98.2314
v 21.9896 482.0166 -95.9552
v 28.9050 482.0166 -92.2588
v 34.9665 482.0166 -87.2843
v 39.9410 482.0166 -81.2228
v 43.6374 482.0166 -74.3073
v 45.9136 482.0166 -66.8036
v 46.6822 462.0166 -59.0000
v 45.9136 462.0166 -51.1964
v 43.6374 462.0166 -43.6927
v 39.9410 462.0166 -36.7772
v 34.9665 462.0166 -30.7157
v 28.9050 462.0166 -25.7412
v 21.9896 462.0166 -22.0448
v 14.4858 462.0166 -19.7686
v 6.6822 462.0166 -19.0000
v -1.1214 462.0166 -19.7686
v -8.6251 462.0166 -22.0448
v -15.5406 462.0166 -25.7412
v -21.6020 462.0166 -30.7157
v -26.5766 462.0166 -36.7772
v -30.2729 462.0166 -43.6927
v -32.5492 462.0166 -51.1964
v -33.3178 462.0166 -59.0000
v -32.5492 462.0166 -66.8036
v -30.2729 462.0166 -74.3073
v -26.5766 462.0166 -81.2228
v -21.6020 462.0166 -87.2843
v -15.5406 462.0166 -92.2588
v -8.6251 462.0166 -95.9552
v -1.1214 462.0166 -98.2314
v 6.6822 462.0166 -99.0000
v 14.4858 462.0166 -98.2314
v 21.9896 462.0166 -95.9552
v 28.9050 462.0166 -92.2588
v 34.9665 462.0166 -87.2843
v 39.9410 462.0166 -81.2228
v 43.6374 462.0166 -74.3073
v 45.9136 462.0166 -66.8036
v 6.6822 482.0166 -59.0000
v 6.6822 462.0166 -59.0000

f 1 33 34
f 1 34 2
f 2 34 35
f 2 35 3
f 3 35 36
f 3 36 4
f 4 36 37
f 4 37 5
f 5 37 38
f 5 38 6
f 6 38 39
f 6 39 7
f 7 39 40
f 7 40 8
f 8 40 41
f 8 41 9
f 9 41 42
f 9 42 10
f 10 42 43
f 10 43 11
f 11 43 44
f 11 44 12
f 12 44 45
f 12 45 13
f 13 45 46
f 13 46 14
f 14 46 47
f 14 47 15
f 15 47 48
f 15 48 16
f 16 48 49
f 16 49 17
f 17 49 50
f 17 50 18
f 18 50 51
f 18 51 19
f 19 51 52
f 19 52 20
f 20 52 53
f 20 53 21
f 21 53 54
f 21 54 22
f 22 54 55
f 22 55 23
f 23 55 56
f 23 56 24
f 24 56 57
f 24 57 25
f 25 57 58
f 25 58 26
f 26 58 59
f 26 59 27
f 27 59 60
f 27 60 28
f 28 60 61
f 28 61 29
f 29 61 62
f 29 62 30
f 30 62 63
f 30 63 31
f 31 63 64
f 31 64 32
f 32 64 33
f 32 33 1
f 1 2 65
f 2 3 65
f 3 4 65
f 4 5 65
f 5 6 65
f 6 7 65
f 7 8 65
f 8 9 65
f 9 10 65
f 10 11 65
f 11 12 65
f 12 13 65
f 13 14 65
f 14 15 65
f 15 16 65
f 16 17 65
f 17 18 65
f 18 19 65
f 19 20 65
f 20 21 65
f 21 22 65
f 22 23 65
f 23 24 65
f 24 25 65
f 25 26 65
f 26 27 65
f 27 28 65
f 28 29 65
f 29 30 65
f 30 31 65
f 31 32 65
f 32 1 65
f 34 33 66
f 35 34 66
f 36 35 66
f 37 36 66
f 38 37 66
f 39 38 66
f 40 39 66
f 41 40 66
f 42 41 66
f 43 42 66
f 44 43 66
f 45 44 66
f 46 45 66
f 47 46 66
f 48 47 66
f 49 48 66
f 50 49 66
f 51 50 66
f 52 51 66
f 53 52 66
f 54 53 66
f 55 54 66
f 56 55 66
f 57 56 66
f 58 57 66
f 59 58 66
f 60 59 66
f 61 60 66
f 62 61 66
f 63 62 66
f 64 63 66
f 33 64 66
