# Rib articulation surface
# Procedurally generated cylindrical geometry

v 127.2500 450.5000 230.5000
v 124.5241 471.2055 230.5000
v 116.5320 490.5000 230.5000
v 103.8185 507.0685 230.5000
v 87.2500 519.7820 230.5000
v 67.9555 527.7741 230.5000
v 47.2500 530.5000 230.5000
v 26.5445 527.7741 230.5000
v 7.2500 519.7820 230.5000
v -9.3185 507.0685 230.5000
v -22.0320 490.5000 230.5000
v -30.0241 471.2055 230.5000
v -32.7500 450.5000 230.5000
v -30.0241 429.7945 230.5000
v -22.0320 410.5000 230.5000
v -9.3185 393.9315 230.5000
v 7.2500 381.2180 230.5000
v 26.5445 373.2259 230.5000
v 47.2500 370.5000 230.5000
v 67.9555 373.2259 230.5000
v 87.2500 381.2180 230.5000
v 103.8185 393.9315 230.5000
v 116.5320 410.5000 230.5000
v 124.5241 429.7945 230.5000
v 127.2500 450.5000 -69.5000
v 124.5241 471.2055 -69.5000
v 116.5320 490.5000 -69.5000
v 103.8185 507.0685 -69.5000
v 87.2500 519.7820 -69.5000
v 67.9555 527.7741 -69.5000
v 47.2500 530.5000 -69.5000
v 26.5445 527.7741 -69.5000
v 7.2500 519.7820 -69.5000
v -9.3185 507.0685 -69.5000
v -22.0320 490.5000 -69.5000
v -30.0241 471.2055 -69.5000
v -32.7500 450.5000 -69.5000
v -30.0241 429.7945 -69.5000
v -22.0320 410.5000 -69.5000
v -9.3185 393.9315 -69.5000
v 7.2500 381.2180 -69.5000
v 26.5445 373.2259 -69.5000
v 47.2500 370.5000 -69.5000
v 67.9555 373.2259 -69.5000
v 87.2500 381.2180 -69.5000
v 103.8185 393.9315 -69.5000
v 116.5320 410.5000 -69.5000
v 124.5241 429.7945 -69.5000
v 47.2500 450.5000 230.5000
v 47.2500 450.5000 -69.5000

f 1 25 26
f 1 26 2
f 2 26 27
f 2 27 3
f 3 27 28
f 3 28 4
f 4 28 29
f 4 29 5
f 5 29 30
f 5 30 6
f 6 30 31
f 6 31 7
f 7 31 32
f 7 32 8
f 8 32 33
f 8 33 9
f 9 33 34
f 9 34 10
f 10 34 35
f 10 35 11
f 11 35 36
f 11 36 12
f 12 36 37
f 12 37 13
f 13 37 38
f 13 38 14
f 14 38 39
f 14 39 15
f 15 39 40
f 15 40 16
f 16 40 41
f 16 41 17
f 17 41 42
f 17 42 18
f 18 42 43
f 18 43 19
f 19 43 44
f 19 44 20
f 20 44 45
f 20 45 21
f 21 45 46
f 21 46 22
f 22 46 47
f 22 47 23
f 23 47 48
f 23 48 24
f 24 48 25
f 24 25 1
f 1 2 49
f 2 3 49
f 3 4 49
f 4 5 49
f 5 6 49
f 6 7 49
f 7 8 49
f 8 9 49
f 9 10 49
f 10 11 49
f 11 12 49
f 12 13 49
f 13 14 49
f 14 15 49
f 15 16 49
f 16 17 49
f 17 18 49
f 18 19 49
f 19 20 49
f 20 21 49
f 21 22 49
f 22 23 49
f 23 24 49
f 24 1 49
f 26 25 50
f 27 26 50
f 28 27 50
f 29 28 50
f 30 29 50
f 31 30 50
f 32 31 50
f 33 32 50
f 34 33 50
f 35 34 50
f 36 35 50
f 37 36 50
f 38 37 50
f 39 38 50
f 40 39 50
f 41 40 50
f 42 41 50
f 43 42 50
f 44 43 50
f 45 44 50
f 46 45 50
f 47 46 50
f 48 47 50
f 25 48 50
