# procedural ligament connector, Q121/Q122, body=female, id=acromioclavicular_ligament_r
v 123.3616 611.6150 -29.2223
v 123.3875 608.9449 -29.2309
v 123.7038 614.0207 -28.1151
v 123.7763 606.5392 -28.1392
v 124.3461 615.6855 -26.1286
v 124.4510 604.8744 -26.1635
v 125.1615 616.2796 -23.6563
v 125.2197 610.2799 -23.6756
v 125.2779 604.2803 -23.6950
v 125.9884 615.6855 -21.1878
v 126.0933 604.8744 -21.2227
v 126.6631 614.0207 -19.2121
v 126.7356 606.5392 -19.2362
v 127.0519 611.6150 -18.1204
v 127.0777 608.9449 -18.1290
v 154.3995 611.9492 -39.5391
v 154.4254 609.2791 -39.5477
v 154.7416 614.3549 -38.4319
v 154.8142 606.8734 -38.4560
v 155.3840 616.0197 -36.4454
v 155.4888 605.2086 -36.4803
v 156.1994 616.6138 -33.9731
v 156.2575 610.6141 -33.9925
v 156.3157 604.6144 -34.0118
v 157.0263 616.0197 -31.5046
v 157.1311 605.2086 -31.5395
v 157.7009 614.3549 -29.5289
v 157.7735 606.8734 -29.5530
v 158.0897 611.9492 -28.4372
v 158.1156 609.2791 -28.4458
f 7 10 25
f 7 25 22
f 10 12 27
f 10 27 25
f 12 14 29
f 12 29 27
f 14 15 30
f 14 30 29
f 15 13 28
f 15 28 30
f 13 11 26
f 13 26 28
f 11 9 24
f 11 24 26
f 9 6 21
f 9 21 24
f 6 4 19
f 6 19 21
f 4 2 17
f 4 17 19
f 2 1 16
f 2 16 17
f 1 3 18
f 1 18 16
f 3 5 20
f 3 20 18
f 5 7 22
f 5 22 20
f 10 7 8
f 12 10 8
f 14 12 8
f 15 14 8
f 13 15 8
f 11 13 8
f 9 11 8
f 6 9 8
f 4 6 8
f 2 4 8
f 1 2 8
f 3 1 8
f 5 3 8
f 7 5 8
f 22 25 23
f 25 27 23
f 27 29 23
f 29 30 23
f 30 28 23
f 28 26 23
f 26 24 23
f 24 21 23
f 21 19 23
f 19 17 23
f 17 16 23
f 16 18 23
f 18 20 23
f 20 22 23
