# procedural ligament connector, Q121/Q122, body=male, id=coracoclavicular_ligament_l
v -138.9993 577.6124 21.1868
v -138.4138 577.4561 18.5862
v -138.4138 577.5656 23.7916
v -136.7734 577.1278 16.5049
v -136.7734 577.3252 25.8848
v -134.4030 576.6925 15.3553
v -134.4030 576.9386 27.0518
v -133.7648 607.7933 20.5517
v -133.1793 607.6371 17.9511
v -133.1793 607.7466 23.1566
v -133.0875 576.5875 21.2083
v -131.7720 576.2364 15.3649
v -131.7720 576.4825 27.0614
v -131.5389 607.3088 15.8699
v -131.5389 607.5061 25.2498
v -129.4016 575.8498 16.5318
v -129.4016 576.0472 25.9117
v -129.1685 606.8734 14.7202
v -129.1685 607.1195 26.4168
v -127.8530 606.7684 20.5733
v -127.7612 575.6094 18.6250
v -127.7612 575.7189 23.8305
v -127.1757 575.5626 21.2299
v -126.5375 606.4173 14.7298
v -126.5375 606.6634 26.4264
v -124.1670 606.0308 15.8968
v -124.1670 606.2281 25.2767
v -122.5266 605.7903 17.9900
v -122.5266 605.8998 23.1955
v -121.9412 605.7436 20.5949
f 30 29 22
f 30 22 23
f 29 27 17
f 29 17 22
f 27 25 13
f 27 13 17
f 25 19 7
f 25 7 13
f 19 15 5
f 19 5 7
f 15 10 3
f 15 3 5
f 10 8 1
f 10 1 3
f 8 9 2
f 8 2 1
f 9 14 4
f 9 4 2
f 14 18 6
f 14 6 4
f 18 24 12
f 18 12 6
f 24 26 16
f 24 16 12
f 26 28 21
f 26 21 16
f 28 30 23
f 28 23 21
f 29 30 20
f 27 29 20
f 25 27 20
f 19 25 20
f 15 19 20
f 10 15 20
f 8 10 20
f 9 8 20
f 14 9 20
f 18 14 20
f 24 18 20
f 26 24 20
f 28 26 20
f 30 28 20
f 23 22 11
f 22 17 11
f 17 13 11
f 13 7 11
f 7 5 11
f 5 3 11
f 3 1 11
f 1 2 11
f 2 4 11
f 4 6 11
f 6 12 11
f 12 16 11
f 16 21 11
f 21 23 11
