# procedural ligament connector, Q121/Q122, body=female, id=coracoclavicular_ligament_r
v 101.2711 600.3516 -13.7941
v 101.8483 599.7803 -16.3378
v 101.8483 601.1942 -11.3269
v 103.4657 599.5933 -18.4543
v 103.4657 602.1411 -9.4249
v 105.8029 599.8278 -19.7243
v 105.8029 603.0048 -8.4648
v 107.0999 601.7210 -14.1805
v 108.3970 600.4372 -19.8962
v 108.3970 603.6142 -8.6367
v 110.4287 564.2448 -3.6061
v 110.7342 601.3009 -18.9361
v 110.7342 603.8486 -9.9067
v 111.0059 563.6734 -6.1498
v 111.0059 565.0874 -1.1389
v 112.3516 602.2477 -17.0341
v 112.3516 603.6616 -12.0231
v 112.6233 563.4865 -8.2663
v 112.6233 566.0342 0.7632
v 112.9288 603.0903 -14.5669
v 114.9605 563.7209 -9.5362
v 114.9605 566.8979 1.7233
v 116.2575 565.6141 -3.9925
v 117.5546 564.3303 -9.7082
v 117.5546 567.5073 1.5513
v 119.8918 565.1940 -8.7481
v 119.8918 567.7418 0.2814
v 121.5092 566.1409 -6.8460
v 121.5092 567.5548 -1.8351
v 122.0864 566.9834 -4.3788
f 20 17 29
f 20 29 30
f 17 13 27
f 17 27 29
f 13 10 25
f 13 25 27
f 10 7 22
f 10 22 25
f 7 5 19
f 7 19 22
f 5 3 15
f 5 15 19
f 3 1 11
f 3 11 15
f 1 2 14
f 1 14 11
f 2 4 18
f 2 18 14
f 4 6 21
f 4 21 18
f 6 9 24
f 6 24 21
f 9 12 26
f 9 26 24
f 12 16 28
f 12 28 26
f 16 20 30
f 16 30 28
f 17 20 8
f 13 17 8
f 10 13 8
f 7 10 8
f 5 7 8
f 3 5 8
f 1 3 8
f 2 1 8
f 4 2 8
f 6 4 8
f 9 6 8
f 12 9 8
f 16 12 8
f 20 16 8
f 30 29 23
f 29 27 23
f 27 25 23
f 25 22 23
f 22 19 23
f 19 15 23
f 15 11 23
f 11 14 23
f 14 18 23
f 18 21 23
f 21 24 23
f 24 26 23
f 26 28 23
f 28 30 23
