# procedural ligament connector, Q121/Q122, body=female, id=acromioclavicular_ligament_l
v -162.0520 617.3791 -33.8060
v -161.5359 615.2352 -35.3119
v -161.5359 619.8052 -32.8172
v -160.0900 613.7982 -37.0366
v -160.0900 622.0331 -32.5414
v -158.0006 613.3526 -38.6385
v -158.0006 623.6215 -33.0331
v -156.8411 618.8042 -36.4167
v -155.6816 613.9869 -39.8004
v -155.6816 624.2557 -34.1950
v -153.5922 615.5752 -40.2921
v -153.5922 623.8102 -35.7969
v -152.1462 617.8031 -40.0162
v -152.1462 622.3732 -37.5216
v -151.6302 620.2293 -39.0274
v -142.1159 600.6447 -3.1493
v -141.5999 598.5008 -4.6552
v -141.5999 603.0709 -2.1606
v -140.1540 597.0638 -6.3799
v -140.1540 605.2988 -1.8847
v -138.0646 596.6183 -7.9818
v -138.0646 606.8871 -2.3764
v -136.9050 602.0698 -5.7601
v -135.7455 597.2525 -9.1437
v -135.7455 607.5214 -3.5383
v -133.6561 598.8409 -9.6354
v -133.6561 607.0758 -5.1402
v -132.2102 601.0688 -9.3596
v -132.2102 605.6388 -6.8649
v -131.6942 603.4949 -8.3708
f 30 28 13
f 30 13 15
f 28 26 11
f 28 11 13
f 26 24 9
f 26 9 11
f 24 21 6
f 24 6 9
f 21 19 4
f 21 4 6
f 19 17 2
f 19 2 4
f 17 16 1
f 17 1 2
f 16 18 3
f 16 3 1
f 18 20 5
f 18 5 3
f 20 22 7
f 20 7 5
f 22 25 10
f 22 10 7
f 25 27 12
f 25 12 10
f 27 29 14
f 27 14 12
f 29 30 15
f 29 15 14
f 28 30 23
f 26 28 23
f 24 26 23
f 21 24 23
f 19 21 23
f 17 19 23
f 16 17 23
f 18 16 23
f 20 18 23
f 22 20 23
f 25 22 23
f 27 25 23
f 29 27 23
f 30 29 23
f 15 13 8
f 13 11 8
f 11 9 8
f 9 6 8
f 6 4 8
f 4 2 8
f 2 1 8
f 1 3 8
f 3 5 8
f 5 7 8
f 7 10 8
f 10 12 8
f 12 14 8
f 14 15 8
