# procedural tendon connector, Q118, body=female, id=quadriceps_tendon_r
v 70.9930 -358.0877 23.0299
v 71.4939 -358.4911 19.0067
v 71.4939 -356.2352 26.6239
v 72.8973 -357.3654 15.3512
v 72.8973 -353.3004 29.0769
v 74.9252 -354.9336 12.7874
v 74.9252 -349.8646 29.9030
v 76.0507 -350.7710 20.8630
v 77.1761 -351.6774 11.8230
v 77.1761 -346.6084 28.9386
v 79.2041 -348.2416 12.6491
v 79.2041 -344.1766 26.3748
v 80.6074 -345.3068 15.1021
v 80.6074 -343.0509 22.7193
v 81.1083 -343.4542 18.6961
v 90.1516 -273.9227 19.8468
v 90.7537 -274.0761 17.2086
v 90.7537 -273.8412 22.4883
v 91.0796 -360.3219 23.6916
v 92.4406 -274.2711 15.0961
v 92.4406 -273.8478 24.6098
v 94.8782 -274.4691 13.9277
v 94.8782 -273.9412 25.7911
v 96.2310 -274.2859 19.8630
v 97.5838 -274.6307 13.9349
v 97.5838 -274.1028 25.7983
v 100.0214 -274.7241 15.1162
v 100.0214 -274.3008 24.6299
v 101.4249 -328.3062 -10.5096
v 101.7083 -274.7307 17.2377
v 101.7083 -274.4958 22.5174
v 102.1979 -331.2046 -12.7819
v 102.1979 -325.8478 -7.7675
v 102.3104 -274.6492 19.8792
v 104.3640 -333.9687 -14.1341
v 104.3640 -324.3162 -5.0985
v 104.6734 -332.7759 -6.1543
v 105.4218 -335.8634 -8.4087
v 105.4218 -330.2817 -3.2571
v 107.4940 -336.0513 -14.2986
v 107.4940 -324.0148 -3.0313
v 107.5189 -338.9326 -9.5739
v 107.5189 -328.8746 -0.2910
v 109.2310 -330.5273 -8.1370
v 110.5493 -341.3756 -9.4191
v 110.5493 -328.8335 2.1565
v 110.9680 -337.0397 -13.2427
v 110.9680 -325.0032 -1.9754
v 112.2310 -335.7710 -2.9092
v 113.9127 -342.7085 -7.9748
v 113.9127 -330.1664 3.6007
v 114.0980 -336.7383 -11.1755
v 114.0980 -327.0858 -2.1399
v 116.2641 -335.2067 -8.5065
v 116.2641 -329.8499 -3.4921
v 116.9431 -342.6674 -5.5273
v 116.9431 -332.6094 3.7556
v 117.0371 -332.7483 -5.7644
v 119.0402 -341.2603 -2.5612
v 119.0402 -335.6786 2.5904
v 119.7886 -338.7660 0.3360
f 34 31 19
f 31 28 19
f 28 26 19
f 26 23 19
f 23 21 19
f 21 18 19
f 18 16 19
f 16 17 19
f 17 20 19
f 20 22 19
f 22 25 19
f 25 27 19
f 27 30 19
f 30 34 19
f 31 34 24
f 28 31 24
f 26 28 24
f 23 26 24
f 21 23 24
f 18 21 24
f 16 18 24
f 17 16 24
f 20 17 24
f 22 20 24
f 25 22 24
f 27 25 24
f 30 27 24
f 34 30 24
f 15 14 19
f 14 12 19
f 12 10 19
f 10 7 19
f 7 5 19
f 5 3 19
f 3 1 19
f 1 2 19
f 2 4 19
f 4 6 19
f 6 9 19
f 9 11 19
f 11 13 19
f 13 15 19
f 14 15 8
f 12 14 8
f 10 12 8
f 7 10 8
f 5 7 8
f 3 5 8
f 1 3 8
f 2 1 8
f 4 2 8
f 6 4 8
f 9 6 8
f 11 9 8
f 13 11 8
f 15 13 8
f 61 60 19
f 60 57 19
f 57 51 19
f 51 46 19
f 46 43 19
f 43 39 19
f 39 37 19
f 37 38 19
f 38 42 19
f 42 45 19
f 45 50 19
f 50 56 19
f 56 59 19
f 59 61 19
f 60 61 49
f 57 60 49
f 51 57 49
f 46 51 49
f 43 46 49
f 39 43 49
f 37 39 49
f 38 37 49
f 42 38 49
f 45 42 49
f 50 45 49
f 56 50 49
f 59 56 49
f 61 59 49
f 58 55 19
f 55 53 19
f 53 48 19
f 48 41 19
f 41 36 19
f 36 33 19
f 33 29 19
f 29 32 19
f 32 35 19
f 35 40 19
f 40 47 19
f 47 52 19
f 52 54 19
f 54 58 19
f 55 58 44
f 53 55 44
f 48 53 44
f 41 48 44
f 36 41 44
f 33 36 44
f 29 33 44
f 32 29 44
f 35 32 44
f 40 35 44
f 47 40 44
f 52 47 44
f 54 52 44
f 58 54 44
