# procedural tendon connector, Q118, body=male, id=quadriceps_tendon_l
v -167.7026 -383.0607 -4.9970
v -167.0884 -385.9541 -5.8450
v -167.0884 -380.0562 -4.7438
v -165.3673 -388.1634 -7.1199
v -165.3673 -377.5358 -5.1355
v -162.8802 -389.2510 -8.5690
v -162.8802 -375.9986 -6.0945
v -161.5000 -382.5000 -8.0000
v -160.1198 -389.0014 -9.9055
v -160.1198 -375.7490 -7.4310
v -157.6327 -387.4642 -10.8645
v -157.6327 -376.8366 -8.8801
v -155.9116 -384.9438 -11.2562
v -155.9116 -379.0459 -10.1550
v -155.2974 -381.9393 -11.0030
v -146.5970 -304.4787 48.0031
v -145.8942 -304.9273 51.0496
v -145.8942 -304.0343 44.9561
v -143.9249 -305.2912 53.4920
v -143.9249 -303.6822 42.5119
v -141.0792 -305.4985 54.8467
v -141.0792 -303.4921 41.1547
v -139.7640 -390.6003 35.3829
v -139.5000 -304.5000 48.0000
v -137.9208 -305.5079 54.8453
v -137.9208 -303.5015 41.1533
v -135.0751 -305.3178 53.4881
v -135.0751 -303.7088 42.5080
v -133.1058 -304.9657 51.0439
v -133.1058 -304.0727 44.9504
v -132.4030 -304.5213 47.9969
v -130.9294 -359.5686 31.1328
v -130.3917 -360.1913 28.5613
v -130.3917 -359.4770 33.7769
v -128.8852 -361.2218 26.5719
v -128.8852 -359.9346 35.9702
v -126.7081 -362.4559 25.5586
v -126.7081 -360.8508 37.2780
v -125.5000 -362.2500 31.5000
v -124.2919 -363.6492 25.7220
v -124.2919 -362.0441 37.4414
v -123.1937 -374.6196 43.8381
v -123.1069 -377.2775 47.4864
v -122.4994 -373.6709 39.4791
v -122.2562 -381.1185 49.7015
v -122.1148 -364.5654 27.0298
v -122.1148 -363.2782 36.4281
v -121.1615 -374.6196 35.2728
v -120.8101 -385.3815 50.0446
v -120.6083 -365.0230 29.2231
v -120.6083 -364.3087 34.4387
v -120.0706 -364.9314 31.8672
v -119.4450 -377.2775 32.0523
v -119.2500 -383.2500 40.2500
v -119.0550 -389.2225 48.4477
v -117.6899 -381.1185 30.4554
v -117.3385 -391.8804 45.2272
v -116.2438 -385.3815 30.7985
v -116.0006 -392.8291 41.0209
v -115.3931 -389.2225 33.0136
v -115.3063 -391.8804 36.6619
f 31 29 23
f 29 27 23
f 27 25 23
f 25 21 23
f 21 19 23
f 19 17 23
f 17 16 23
f 16 18 23
f 18 20 23
f 20 22 23
f 22 26 23
f 26 28 23
f 28 30 23
f 30 31 23
f 29 31 24
f 27 29 24
f 25 27 24
f 21 25 24
f 19 21 24
f 17 19 24
f 16 17 24
f 18 16 24
f 20 18 24
f 22 20 24
f 26 22 24
f 28 26 24
f 30 28 24
f 31 30 24
f 44 48 23
f 48 53 23
f 53 56 23
f 56 58 23
f 58 60 23
f 60 61 23
f 61 59 23
f 59 57 23
f 57 55 23
f 55 49 23
f 49 45 23
f 45 43 23
f 43 42 23
f 42 44 23
f 48 44 54
f 53 48 54
f 56 53 54
f 58 56 54
f 60 58 54
f 61 60 54
f 59 61 54
f 57 59 54
f 55 57 54
f 49 55 54
f 45 49 54
f 43 45 54
f 42 43 54
f 44 42 54
f 15 14 23
f 14 12 23
f 12 10 23
f 10 7 23
f 7 5 23
f 5 3 23
f 3 1 23
f 1 2 23
f 2 4 23
f 4 6 23
f 6 9 23
f 9 11 23
f 11 13 23
f 13 15 23
f 14 15 8
f 12 14 8
f 10 12 8
f 7 10 8
f 5 7 8
f 3 5 8
f 1 3 8
f 2 1 8
f 4 2 8
f 6 4 8
f 9 6 8
f 11 9 8
f 13 11 8
f 15 13 8
f 52 51 23
f 51 47 23
f 47 41 23
f 41 38 23
f 38 36 23
f 36 34 23
f 34 32 23
f 32 33 23
f 33 35 23
f 35 37 23
f 37 40 23
f 40 46 23
f 46 50 23
f 50 52 23
f 51 52 39
f 47 51 39
f 41 47 39
f 38 41 39
f 36 38 39
f 34 36 39
f 32 34 39
f 33 32 39
f 35 33 39
f 37 35 39
f 40 37 39
f 46 40 39
f 50 46 39
f 52 50 39
