# procedural tendon connector, Q118, body=female, id=iliopsoas_tendon_l
v -114.4074 -43.6080 -0.8507
v -113.5952 -46.9661 -2.0456
v -113.5952 -40.2821 0.4313
v -111.3197 -49.6914 -2.9166
v -111.3197 -37.6473 1.5465
v -109.8068 -38.1539 -15.5689
v -109.3602 -40.0009 -16.2261
v -109.3602 -36.3247 -14.8638
v -108.1086 -41.4998 -16.7051
v -108.1086 -34.8756 -14.2504
v -108.0314 -51.2441 -3.2913
v -108.0314 -36.2254 2.2740
v -106.3000 -42.3538 -16.9112
v -106.3000 -34.0935 -13.8503
v -106.2065 -43.7710 -0.4107
v -105.2964 -38.2436 -15.3269
v -104.3816 -51.3166 -3.0955
v -104.3816 -36.2979 2.4698
v -104.2927 -42.3937 -16.8035
v -104.2927 -34.1334 -13.7426
v -102.4841 -41.6116 -16.4034
v -102.4841 -34.9874 -13.9487
v -101.2326 -40.1625 -15.7900
v -101.2326 -36.4863 -14.4278
v -101.0933 -49.8947 -2.3680
v -101.0933 -37.8506 2.0951
v -100.7859 -38.3333 -15.0849
v -98.8178 -47.2599 -1.2528
v -98.8178 -40.5759 1.2241
v -98.0056 -43.9340 0.0292
f 30 28 23
f 30 23 27
f 28 25 21
f 28 21 23
f 25 17 19
f 25 19 21
f 17 11 13
f 17 13 19
f 11 4 9
f 11 9 13
f 4 2 7
f 4 7 9
f 2 1 6
f 2 6 7
f 1 3 8
f 1 8 6
f 3 5 10
f 3 10 8
f 5 12 14
f 5 14 10
f 12 18 20
f 12 20 14
f 18 26 22
f 18 22 20
f 26 29 24
f 26 24 22
f 29 30 27
f 29 27 24
f 28 30 15
f 25 28 15
f 17 25 15
f 11 17 15
f 4 11 15
f 2 4 15
f 1 2 15
f 3 1 15
f 5 3 15
f 12 5 15
f 18 12 15
f 26 18 15
f 29 26 15
f 30 29 15
f 27 23 16
f 23 21 16
f 21 19 16
f 19 13 16
f 13 9 16
f 9 7 16
f 7 6 16
f 6 8 16
f 8 10 16
f 10 14 16
f 14 20 16
f 20 22 16
f 22 24 16
f 24 27 16
