# procedural tendon connector, Q118, body=male, id=adductor_magnus_distal_tendon_r
v 79.7350 -355.2207 -18.4704
v 80.5535 -355.2970 -22.0700
v 80.5535 -355.0017 -14.8767
v 82.8469 -355.2155 -24.9625
v 82.8469 -354.6832 -12.0006
v 86.1609 -354.9922 -26.5750
v 86.1609 -354.3285 -10.4118
v 88.0000 -354.5000 -18.5000
v 89.8391 -354.6715 -26.5882
v 89.8391 -354.0078 -10.4250
v 90.8701 -439.7951 -14.9976
v 91.3203 -439.8370 -16.9773
v 91.3203 -439.6746 -13.0210
v 92.5816 -439.7922 -18.5682
v 92.5816 -439.4995 -11.4392
v 93.1531 -354.3168 -24.9994
v 93.1531 -353.7845 -12.0375
v 94.4043 -439.6694 -19.4551
v 94.4043 -439.3044 -10.5653
v 95.4159 -439.3987 -15.0138
v 95.4465 -353.9983 -22.1233
v 95.4465 -353.7030 -14.9300
v 96.2650 -353.7793 -18.5296
v 96.4274 -439.4930 -19.4623
v 96.4274 -439.1279 -10.5726
v 98.2501 -439.2979 -18.5885
v 98.2501 -439.0051 -11.4595
v 99.5115 -439.1227 -17.0067
v 99.5115 -438.9603 -13.0503
v 99.9616 -439.0023 -15.0301
f 23 22 29
f 23 29 30
f 22 17 27
f 22 27 29
f 17 10 25
f 17 25 27
f 10 7 19
f 10 19 25
f 7 5 15
f 7 15 19
f 5 3 13
f 5 13 15
f 3 1 11
f 3 11 13
f 1 2 12
f 1 12 11
f 2 4 14
f 2 14 12
f 4 6 18
f 4 18 14
f 6 9 24
f 6 24 18
f 9 16 26
f 9 26 24
f 16 21 28
f 16 28 26
f 21 23 30
f 21 30 28
f 22 23 8
f 17 22 8
f 10 17 8
f 7 10 8
f 5 7 8
f 3 5 8
f 1 3 8
f 2 1 8
f 4 2 8
f 6 4 8
f 9 6 8
f 16 9 8
f 21 16 8
f 23 21 8
f 30 29 20
f 29 27 20
f 27 25 20
f 25 19 20
f 19 15 20
f 15 13 20
f 13 11 20
f 11 12 20
f 12 14 20
f 14 18 20
f 18 24 20
f 24 26 20
f 26 28 20
f 28 30 20
