# procedural tendon connector, Q118, body=male, id=adductor_magnus_distal_tendon_l
v -86.7617 -440.0119 -19.1100
v -86.4083 -440.1313 -17.5615
v -86.4083 -439.9463 -20.6618
v -85.4181 -440.2807 -16.3229
v -85.4181 -439.9474 -21.9093
v -83.9872 -440.4307 -15.6395
v -83.9872 -440.0150 -22.6057
v -83.1931 -440.2832 -19.1262
v -82.4885 -345.5067 -13.4706
v -82.3989 -440.5514 -15.6467
v -82.3989 -440.1357 -22.6129
v -81.8459 -345.7238 -10.6551
v -81.8459 -345.3874 -16.2919
v -80.9680 -440.6190 -16.3431
v -80.9680 -440.2857 -21.9295
v -80.0455 -345.9955 -8.4031
v -80.0455 -345.3894 -18.5602
v -79.9778 -440.6201 -17.5907
v -79.9778 -440.4351 -20.6909
v -79.6244 -440.5545 -19.1424
v -77.4438 -346.2681 -7.1606
v -77.4438 -345.5123 -19.8263
v -76.0000 -346.0000 -13.5000
v -74.5562 -346.4877 -7.1737
v -74.5562 -345.7319 -19.8394
v -71.9545 -346.6106 -8.4398
v -71.9545 -346.0045 -18.5969
v -70.1541 -346.6126 -10.7081
v -70.1541 -346.2762 -16.3449
v -69.5115 -346.4933 -13.5294
f 30 28 18
f 30 18 20
f 28 26 14
f 28 14 18
f 26 24 10
f 26 10 14
f 24 21 6
f 24 6 10
f 21 16 4
f 21 4 6
f 16 12 2
f 16 2 4
f 12 9 1
f 12 1 2
f 9 13 3
f 9 3 1
f 13 17 5
f 13 5 3
f 17 22 7
f 17 7 5
f 22 25 11
f 22 11 7
f 25 27 15
f 25 15 11
f 27 29 19
f 27 19 15
f 29 30 20
f 29 20 19
f 28 30 23
f 26 28 23
f 24 26 23
f 21 24 23
f 16 21 23
f 12 16 23
f 9 12 23
f 13 9 23
f 17 13 23
f 22 17 23
f 25 22 23
f 27 25 23
f 29 27 23
f 30 29 23
f 20 18 8
f 18 14 8
f 14 10 8
f 10 6 8
f 6 4 8
f 4 2 8
f 2 1 8
f 1 3 8
f 3 5 8
f 5 7 8
f 7 11 8
f 11 15 8
f 15 19 8
f 19 20 8
