# procedural tendon connector, Q118, body=female, id=adductor_magnus_distal_tendon_l
v -79.3456 -301.4838 -13.2081
v -78.5953 -301.5197 -9.8641
v -78.5953 -301.1752 -16.5380
v -76.4929 -301.2756 -7.1684
v -76.4929 -300.6548 -19.1943
v -73.4549 -300.8000 -5.6548
v -73.4549 -300.0258 -20.6509
v -71.7690 -300.1064 -13.1370
v -70.0830 -300.1869 -5.6231
v -70.0830 -299.4127 -20.6192
v -67.0451 -299.5579 -7.0797
v -67.0451 -298.9371 -19.1056
v -64.9427 -299.0376 -9.7360
v -64.9427 -298.6930 -16.4099
v -64.1924 -298.7289 -13.0659
v -60.8411 -383.6703 -17.4511
v -60.4284 -383.6901 -15.6119
v -60.4284 -383.5006 -19.2825
v -59.2721 -383.5558 -14.1292
v -59.2721 -383.2143 -20.7435
v -57.6013 -383.2942 -13.2967
v -57.6013 -382.8684 -21.5446
v -56.6740 -382.9127 -17.4120
v -55.7467 -382.9570 -13.2793
v -55.7467 -382.5312 -21.5272
v -54.0758 -382.6111 -14.0805
v -54.0758 -382.2696 -20.6947
v -52.9195 -382.3249 -15.5414
v -52.9195 -382.1354 -19.2121
v -52.5069 -382.1551 -17.3729
f 15 13 28
f 15 28 30
f 13 11 26
f 13 26 28
f 11 9 24
f 11 24 26
f 9 6 21
f 9 21 24
f 6 4 19
f 6 19 21
f 4 2 17
f 4 17 19
f 2 1 16
f 2 16 17
f 1 3 18
f 1 18 16
f 3 5 20
f 3 20 18
f 5 7 22
f 5 22 20
f 7 10 25
f 7 25 22
f 10 12 27
f 10 27 25
f 12 14 29
f 12 29 27
f 14 15 30
f 14 30 29
f 13 15 8
f 11 13 8
f 9 11 8
f 6 9 8
f 4 6 8
f 2 4 8
f 1 2 8
f 3 1 8
f 5 3 8
f 7 5 8
f 10 7 8
f 12 10 8
f 14 12 8
f 15 14 8
f 30 28 23
f 28 26 23
f 26 24 23
f 24 21 23
f 21 19 23
f 19 17 23
f 17 16 23
f 16 18 23
f 18 20 23
f 20 22 23
f 22 25 23
f 25 27 23
f 27 29 23
f 29 30 23
