# procedural tendon connector, Q118, body=female, id=iliopsoas_tendon_r
v 97.7756 -42.9268 -3.3893
v 98.6501 -46.6326 -4.4015
v 98.6501 -39.1901 -2.4977
v 100.6930 -39.1791 -18.0398
v 101.1004 -49.5735 -5.3338
v 101.1004 -36.1627 -1.9033
v 101.1740 -41.2173 -18.5966
v 101.1740 -37.1239 -17.5495
v 102.5216 -42.8348 -19.1093
v 102.5216 -35.4589 -17.2225
v 104.4690 -43.7113 -19.4766
v 104.4690 -34.5136 -17.1238
v 104.6411 -51.1672 -6.0016
v 104.6411 -34.4442 -1.7238
v 105.5497 -39.0934 -18.3748
v 106.6060 -42.7710 -3.9982
v 106.6304 -43.6732 -19.6257
v 106.6304 -34.4755 -17.2729
v 108.5709 -51.0978 -6.2726
v 108.5709 -34.3748 -1.9948
v 108.5778 -42.7280 -19.5270
v 108.5778 -35.3520 -17.6402
v 109.9254 -41.0629 -19.2001
v 109.9254 -36.9695 -18.1530
v 110.4064 -39.0077 -18.7097
v 112.1116 -49.3793 -6.0932
v 112.1116 -35.9685 -2.6626
v 114.5619 -46.3519 -5.4988
v 114.5619 -38.9094 -3.5950
v 115.4364 -42.6152 -4.6072
f 30 28 23
f 30 23 25
f 28 26 21
f 28 21 23
f 26 19 17
f 26 17 21
f 19 13 11
f 19 11 17
f 13 5 9
f 13 9 11
f 5 2 7
f 5 7 9
f 2 1 4
f 2 4 7
f 1 3 8
f 1 8 4
f 3 6 10
f 3 10 8
f 6 14 12
f 6 12 10
f 14 20 18
f 14 18 12
f 20 27 22
f 20 22 18
f 27 29 24
f 27 24 22
f 29 30 25
f 29 25 24
f 28 30 16
f 26 28 16
f 19 26 16
f 13 19 16
f 5 13 16
f 2 5 16
f 1 2 16
f 3 1 16
f 6 3 16
f 14 6 16
f 20 14 16
f 27 20 16
f 29 27 16
f 30 29 16
f 25 23 15
f 23 21 15
f 21 17 15
f 17 11 15
f 11 9 15
f 9 7 15
f 7 4 15
f 4 8 15
f 8 10 15
f 10 12 15
f 12 18 15
f 18 22 15
f 22 24 15
f 24 25 15
