# procedural tendon connector, Q118, body=male, id=quadriceps_tendon_r
v 110.5602 -396.1913 48.6022
v 110.8644 -397.1191 44.3462
v 110.8877 -393.5915 52.0953
v 111.7402 -396.1913 40.1701
v 111.7822 -389.8348 54.1335
v 113.0140 -393.5915 36.9011
v 113.0664 -385.6652 54.3133
v 113.7500 -387.7500 44.7500
v 114.4336 -389.8348 35.1867
v 114.4860 -381.9085 52.5989
v 115.7178 -385.6652 35.3665
v 115.7598 -379.3087 49.3299
v 116.6123 -381.9085 37.4047
v 116.6356 -378.3809 45.1538
v 116.9398 -379.3087 40.8978
v 125.1507 -309.4485 61.9279
v 125.7052 -309.7910 64.3416
v 125.7052 -309.0172 59.5285
v 127.2589 -309.9769 66.2915
v 127.2589 -308.5824 57.6186
v 129.5040 -309.9692 67.3914
v 129.5040 -308.2304 56.5765
v 130.7500 -309.0000 62.0000
v 131.9960 -309.7696 67.4235
v 131.9960 -308.0308 56.6086
v 134.2411 -309.4176 66.3814
v 134.2411 -308.0231 57.7085
v 135.7948 -308.9828 64.4715
v 135.7948 -308.2090 59.6584
v 136.3493 -308.5515 62.0721
v 137.8429 -395.3157 48.1216
v 146.5499 -368.5401 14.7453
v 147.3620 -371.7806 12.5941
v 147.3620 -365.7373 17.4422
v 149.6373 -374.8170 11.4145
v 149.6373 -363.9273 20.1505
v 151.7647 -368.3852 23.4128
v 152.4564 -371.1664 21.0504
v 152.4564 -366.2704 26.3866
v 152.9253 -377.0478 11.4402
v 152.9253 -363.4687 22.3339
v 154.3947 -374.0632 19.7674
v 154.3947 -365.2410 29.3829
v 154.7500 -370.7500 17.5000
v 156.5747 -378.0313 12.6661
v 156.5747 -364.4522 23.5598
v 157.1956 -376.5019 19.8178
v 157.1956 -365.5007 31.8082
v 158.7500 -371.7500 26.5000
v 159.8627 -377.5727 14.8495
v 159.8627 -366.6830 23.5855
v 160.3044 -377.9993 21.1918
v 160.3044 -366.9981 33.1822
v 162.1380 -375.7627 17.5578
v 162.1380 -369.7194 22.4059
v 162.9501 -372.9599 20.2547
v 163.1053 -378.2590 23.6171
v 163.1053 -369.4368 33.2326
v 165.0436 -377.2296 26.6134
v 165.0436 -372.3336 31.9496
v 165.7353 -375.1148 29.5872
f 30 28 31
f 28 26 31
f 26 24 31
f 24 21 31
f 21 19 31
f 19 17 31
f 17 16 31
f 16 18 31
f 18 20 31
f 20 22 31
f 22 25 31
f 25 27 31
f 27 29 31
f 29 30 31
f 28 30 23
f 26 28 23
f 24 26 23
f 21 24 23
f 19 21 23
f 17 19 23
f 16 17 23
f 18 16 23
f 20 18 23
f 22 20 23
f 25 22 23
f 27 25 23
f 29 27 23
f 30 29 23
f 14 12 31
f 12 10 31
f 10 7 31
f 7 5 31
f 5 3 31
f 3 1 31
f 1 2 31
f 2 4 31
f 4 6 31
f 6 9 31
f 9 11 31
f 11 13 31
f 13 15 31
f 15 14 31
f 12 14 8
f 10 12 8
f 7 10 8
f 5 7 8
f 3 5 8
f 1 3 8
f 2 1 8
f 4 2 8
f 6 4 8
f 9 6 8
f 11 9 8
f 13 11 8
f 15 13 8
f 14 15 8
f 61 60 31
f 60 58 31
f 58 53 31
f 53 48 31
f 48 43 31
f 43 39 31
f 39 37 31
f 37 38 31
f 38 42 31
f 42 47 31
f 47 52 31
f 52 57 31
f 57 59 31
f 59 61 31
f 60 61 49
f 58 60 49
f 53 58 49
f 48 53 49
f 43 48 49
f 39 43 49
f 37 39 49
f 38 37 49
f 42 38 49
f 47 42 49
f 52 47 49
f 57 52 49
f 59 57 49
f 61 59 49
f 56 55 31
f 55 51 31
f 51 46 31
f 46 41 31
f 41 36 31
f 36 34 31
f 34 32 31
f 32 33 31
f 33 35 31
f 35 40 31
f 40 45 31
f 45 50 31
f 50 54 31
f 54 56 31
f 55 56 44
f 51 55 44
f 46 51 44
f 41 46 44
f 36 41 44
f 34 36 44
f 32 34 44
f 33 32 44
f 35 33 44
f 40 35 44
f 45 40 44
f 50 45 44
f 54 50 44
f 56 54 44
