# procedural tendon connector, Q118, body=female, id=quadriceps_tendon_l
v -111.5671 -338.1122 3.4202
v -111.0919 -340.1390 2.0418
v -111.0919 -335.8198 4.2878
v -110.4642 -332.4705 10.6566
v -109.7606 -341.4986 0.4255
v -109.7606 -333.7158 4.4727
v -109.7022 -335.0133 7.8415
v -109.7022 -329.3930 12.8747
v -107.8367 -341.9219 -1.1084
v -107.8367 -332.2169 3.9383
v -107.5669 -336.5179 4.9870
v -107.5669 -326.3903 14.0564
v -106.7690 -336.7710 0.8410
v -105.7013 -341.3250 -2.2563
v -105.7013 -331.6201 2.7905
v -104.4813 -336.6861 2.6583
v -104.4813 -324.0573 13.9677
v -103.7774 -339.8262 -2.7907
v -103.7774 -332.0434 1.2565
v -102.7690 -329.7710 7.6422
v -102.4461 -337.7222 -2.6057
v -102.4461 -333.4030 -0.3597
v -101.9709 -335.4298 -1.7381
v -101.2550 -267.0806 33.8819
v -101.0566 -335.4847 1.3167
v -101.0566 -322.8559 12.6261
v -100.5136 -267.0582 30.6087
v -100.5136 -266.9225 37.1513
v -98.4364 -266.8597 27.9801
v -98.4364 -266.6152 39.7695
v -97.9711 -333.1517 1.2280
v -97.9711 -323.0241 10.2975
v -95.8358 -330.1490 2.4097
v -95.8358 -324.5287 7.4429
v -95.4348 -266.5244 26.5166
v -95.4348 -266.2196 41.2178
v -95.0738 -327.0715 4.6278
v -93.7690 -266.1692 33.8630
v -92.1032 -266.1188 26.5082
v -92.1032 -265.8140 41.2094
v -89.1016 -265.7232 27.9565
v -89.1016 -265.4788 39.7459
v -87.0244 -265.4159 30.5747
v -87.0244 -265.2803 37.1173
v -86.2830 -265.2579 33.8441
v -82.9620 -354.8995 35.7025
v -77.3891 -334.4889 29.4192
v -76.7335 -336.0054 26.1449
v -76.7335 -333.9014 32.9794
v -74.8966 -338.1504 23.8051
v -74.8966 -334.3592 36.1204
v -72.2421 -340.4992 22.8633
v -72.2421 -335.7717 38.2202
v -70.7690 -339.1791 30.8630
v -69.2959 -342.5865 23.5058
v -69.2959 -337.8590 38.8627
v -66.6414 -343.9990 25.6056
v -66.6414 -340.2078 37.9209
v -64.8045 -344.4568 28.7466
v -64.8045 -342.3528 35.5811
v -64.1489 -343.8693 32.3069
f 45 44 46
f 44 42 46
f 42 40 46
f 40 36 46
f 36 30 46
f 30 28 46
f 28 24 46
f 24 27 46
f 27 29 46
f 29 35 46
f 35 39 46
f 39 41 46
f 41 43 46
f 43 45 46
f 44 45 38
f 42 44 38
f 40 42 38
f 36 40 38
f 30 36 38
f 28 30 38
f 24 28 38
f 27 24 38
f 29 27 38
f 35 29 38
f 39 35 38
f 41 39 38
f 43 41 38
f 45 43 38
f 61 60 46
f 60 58 46
f 58 56 46
f 56 53 46
f 53 51 46
f 51 49 46
f 49 47 46
f 47 48 46
f 48 50 46
f 50 52 46
f 52 55 46
f 55 57 46
f 57 59 46
f 59 61 46
f 60 61 54
f 58 60 54
f 56 58 54
f 53 56 54
f 51 53 54
f 49 51 54
f 47 49 54
f 48 47 54
f 50 48 54
f 52 50 54
f 55 52 54
f 57 55 54
f 59 57 54
f 61 59 54
f 23 22 46
f 22 19 46
f 19 15 46
f 15 10 46
f 10 6 46
f 6 3 46
f 3 1 46
f 1 2 46
f 2 5 46
f 5 9 46
f 9 14 46
f 14 18 46
f 18 21 46
f 21 23 46
f 22 23 13
f 19 22 13
f 15 19 13
f 10 15 13
f 6 10 13
f 3 6 13
f 1 3 13
f 2 1 13
f 5 2 13
f 9 5 13
f 14 9 13
f 18 14 13
f 21 18 13
f 23 21 13
f 37 34 46
f 34 32 46
f 32 26 46
f 26 17 46
f 17 12 46
f 12 8 46
f 8 4 46
f 4 7 46
f 7 11 46
f 11 16 46
f 16 25 46
f 25 31 46
f 31 33 46
f 33 37 46
f 34 37 20
f 32 34 20
f 26 32 20
f 17 26 20
f 12 17 20
f 8 12 20
f 4 8 20
f 7 4 20
f 11 7 20
f 16 11 20
f 25 16 20
f 31 25 20
f 33 31 20
f 37 33 20
