# procedural tendon connector, Q118, body=female, id=adductor_magnus_distal_tendon_r
v 45.5476 -308.8152 -27.1393
v 46.1104 -308.7604 -24.6574
v 46.1104 -308.7424 -29.6208
v 47.6875 -308.5889 -22.6666
v 47.6875 -308.5564 -31.6103
v 49.9663 -308.3346 -21.5612
v 49.9663 -308.2941 -32.7139
v 51.2310 -308.1710 -27.1370
v 52.4957 -308.0479 -21.5601
v 52.4957 -308.0074 -32.7128
v 54.7745 -307.7855 -22.6637
v 54.7745 -307.7531 -31.6074
v 56.3516 -307.5996 -24.6532
v 56.3516 -307.5816 -29.6166
v 56.7362 -384.6694 -27.4144
v 56.9144 -307.5268 -27.1347
v 57.0458 -384.6392 -26.0494
v 57.0458 -384.6293 -28.7792
v 57.9131 -384.5449 -24.9544
v 57.9131 -384.5270 -29.8735
v 59.1665 -384.4050 -24.3464
v 59.1665 -384.3828 -30.4804
v 59.8621 -384.3150 -27.4131
v 60.5577 -384.2473 -24.3459
v 60.5577 -384.2251 -30.4798
v 61.8110 -384.1030 -24.9528
v 61.8110 -384.0852 -29.8719
v 62.6784 -384.0008 -26.0470
v 62.6784 -383.9909 -28.7769
v 62.9880 -383.9607 -27.4119
f 16 13 28
f 16 28 30
f 13 11 26
f 13 26 28
f 11 9 24
f 11 24 26
f 9 6 21
f 9 21 24
f 6 4 19
f 6 19 21
f 4 2 17
f 4 17 19
f 2 1 15
f 2 15 17
f 1 3 18
f 1 18 15
f 3 5 20
f 3 20 18
f 5 7 22
f 5 22 20
f 7 10 25
f 7 25 22
f 10 12 27
f 10 27 25
f 12 14 29
f 12 29 27
f 14 16 30
f 14 30 29
f 13 16 8
f 11 13 8
f 9 11 8
f 6 9 8
f 4 6 8
f 2 4 8
f 1 2 8
f 3 1 8
f 5 3 8
f 7 5 8
f 10 7 8
f 12 10 8
f 14 12 8
f 16 14 8
f 30 28 23
f 28 26 23
f 26 24 23
f 24 21 23
f 21 19 23
f 19 17 23
f 17 15 23
f 15 18 23
f 18 20 23
f 20 22 23
f 22 25 23
f 25 27 23
f 27 29 23
f 29 30 23
