# procedural tendon connector, Q118, body=male, id=iliopsoas_tendon_r
v 91.0543 -46.5564 -9.0487
v 91.8412 -49.8011 -10.8409
v 91.8412 -43.6472 -6.7517
v 94.0460 -52.7386 -11.7733
v 94.0460 -41.6496 -4.4049
v 97.2319 -54.7870 -11.6613
v 97.2319 -40.9593 -2.4730
v 97.9059 -42.6108 -14.9866
v 98.3387 -44.3954 -15.9723
v 98.3387 -41.0107 -13.7232
v 99.0000 -48.2500 -6.5000
v 99.5513 -46.0110 -16.4851
v 99.5513 -39.9120 -12.4325
v 100.7681 -55.5407 -10.5270
v 100.7681 -41.7130 -1.3387
v 101.3036 -47.1376 -16.4235
v 101.3036 -39.5324 -11.3699
v 102.2760 -43.5423 -13.5848
v 103.2484 -47.5522 -15.7996
v 103.2484 -39.9469 -10.7461
v 103.9540 -54.8504 -8.5951
v 103.9540 -43.7614 -1.2267
v 105.0007 -47.1725 -14.7371
v 105.0007 -41.0736 -10.6845
v 106.1588 -52.8528 -6.2483
v 106.1588 -46.6989 -2.1591
v 106.2133 -46.0738 -13.4463
v 106.2133 -42.6892 -11.1973
v 106.6461 -44.4737 -12.1830
v 106.9457 -49.9436 -3.9513
f 30 25 27
f 30 27 29
f 25 21 23
f 25 23 27
f 21 14 19
f 21 19 23
f 14 6 16
f 14 16 19
f 6 4 12
f 6 12 16
f 4 2 9
f 4 9 12
f 2 1 8
f 2 8 9
f 1 3 10
f 1 10 8
f 3 5 13
f 3 13 10
f 5 7 17
f 5 17 13
f 7 15 20
f 7 20 17
f 15 22 24
f 15 24 20
f 22 26 28
f 22 28 24
f 26 30 29
f 26 29 28
f 25 30 11
f 21 25 11
f 14 21 11
f 6 14 11
f 4 6 11
f 2 4 11
f 1 2 11
f 3 1 11
f 5 3 11
f 7 5 11
f 15 7 11
f 22 15 11
f 26 22 11
f 30 26 11
f 29 27 18
f 27 23 18
f 23 19 18
f 19 16 18
f 16 12 18
f 12 9 18
f 9 8 18
f 8 10 18
f 10 13 18
f 13 17 18
f 17 20 18
f 20 24 18
f 24 28 18
f 28 29 18
