# procedural tendon connector, Q118, body=male, id=iliopsoas_tendon_l
v -106.3932 -49.9910 -4.8554
v -105.6115 -53.2289 -6.1507
v -105.6115 -46.6559 -3.8364
v -105.5079 -45.0422 -18.9110
v -105.0780 -46.8230 -19.6234
v -105.0780 -43.2079 -18.3506
v -103.8734 -48.1977 -20.3467
v -103.8734 -41.6833 -18.0530
v -103.4213 -55.7283 -7.4656
v -103.4213 -43.8840 -3.2954
v -102.1327 -48.8939 -20.9375
v -102.1327 -40.7706 -18.0773
v -101.1666 -44.7721 -19.6781
v -100.2564 -56.9940 -8.5398
v -100.2564 -42.2245 -3.3396
v -100.2006 -48.7737 -21.2788
v -100.2006 -40.6504 -18.4187
v -98.5000 -49.5000 -6.2500
v -98.4599 -47.8609 -21.3031
v -98.4599 -41.3466 -19.0095
v -97.2553 -46.3364 -21.0056
v -97.2553 -42.7212 -19.7327
v -96.8254 -44.5021 -20.4451
v -96.7436 -56.7755 -9.1604
v -96.7436 -42.0060 -3.9602
v -93.5787 -55.1160 -9.2046
v -93.5787 -43.2717 -5.0344
v -91.3885 -52.3441 -8.6636
v -91.3885 -45.7711 -6.3493
v -90.6068 -49.0090 -7.6446
f 30 28 21
f 30 21 23
f 28 26 19
f 28 19 21
f 26 24 16
f 26 16 19
f 24 14 11
f 24 11 16
f 14 9 7
f 14 7 11
f 9 2 5
f 9 5 7
f 2 1 4
f 2 4 5
f 1 3 6
f 1 6 4
f 3 10 8
f 3 8 6
f 10 15 12
f 10 12 8
f 15 25 17
f 15 17 12
f 25 27 20
f 25 20 17
f 27 29 22
f 27 22 20
f 29 30 23
f 29 23 22
f 28 30 18
f 26 28 18
f 24 26 18
f 14 24 18
f 9 14 18
f 2 9 18
f 1 2 18
f 3 1 18
f 10 3 18
f 15 10 18
f 25 15 18
f 27 25 18
f 29 27 18
f 30 29 18
f 23 21 13
f 21 19 13
f 19 16 13
f 16 11 13
f 11 7 13
f 7 5 13
f 5 4 13
f 4 6 13
f 6 8 13
f 8 12 13
f 12 17 13
f 17 20 13
f 20 22 13
f 22 23 13
